<svg width="46" height="36" viewBox="0 0 46 36" fill="none" xmlns="http://www.w3.org/2000/svg">
<path d="M10.1172 18.1562H10.9375C13.1641 18.1562 15.1562 19.0156 16.9141 20.7344C18.7109 22.4141 19.6094 24.5234 19.6094 27.0625C19.6094 29.5625 18.7109 31.6328 16.9141 33.2734C15.1562 34.875 12.9688 35.6758 10.3516 35.6758C7.5 35.6758 5.11719 34.543 3.20312 32.2773C1.32812 29.9727 0.390625 26.7109 0.390625 22.4922C0.390625 18.625 1.21094 15.0117 2.85156 11.6523C4.53125 8.25391 6.5625 5.57812 8.94531 3.625C11.3672 1.63281 13.5156 0.636719 15.3906 0.636719C16.6406 0.636719 17.6172 1.00781 18.3203 1.75C19.0234 2.49219 19.375 3.44922 19.375 4.62109C19.375 6.33984 18.6133 7.60938 17.0898 8.42969C15.0195 9.5625 13.3789 10.8906 12.168 12.4141C10.957 13.9375 10.2734 15.8516 10.1172 18.1562ZM36.0156 18.1562H36.7773C38.9648 18.1562 40.9375 19.0156 42.6953 20.7344C44.4922 22.4141 45.3906 24.5234 45.3906 27.0625C45.3906 29.5234 44.4922 31.5938 42.6953 33.2734C40.9375 34.9531 38.75 35.793 36.1328 35.793C33.2422 35.793 30.8594 34.6211 28.9844 32.2773C27.1094 29.9336 26.1719 26.6719 26.1719 22.4922C26.1719 19.4844 26.6602 16.6523 27.6367 13.9961C28.6133 11.3398 29.8633 9.03516 31.3867 7.08203C32.9492 5.08984 34.6094 3.52734 36.3672 2.39453C38.1641 1.22266 39.7656 0.636719 41.1719 0.636719C42.4609 0.636719 43.4375 1.00781 44.1016 1.75C44.8047 2.45312 45.1562 3.41016 45.1562 4.62109C45.1562 6.37891 44.3945 7.64844 42.8711 8.42969C40.7227 9.64063 39.1016 10.9883 38.0078 12.4727C36.9141 13.918 36.25 15.8125 36.0156 18.1562Z" fill="url(#quotetemplate--15852924338383__nov_testimonials_GQ9ipd)"></path>
<defs>
<linearGradient id="quotetemplate--15852924338383__nov_testimonials_GQ9ipd" x1="-5" y1="43.5" x2="50" y2="43.5" gradientUnits="userSpaceOnUse">
<stop stop-color="#ff512f"></stop>
<stop offset="1" stop-color="#dd2476"></stop>
</linearGradient>
</defs>
</svg>